<svg width="118" height="51" viewBox="0 0 118 51" fill="none" xmlns="http://www.w3.org/2000/svg">
<g clip-path="url(#clip0)">
<path d="M12.9456 39.1237L10.5987 43.1943H9.49487L7.07299 39.1456V45.2023H5.07968V36.3518H7.64097L10.0843 40.6188L12.5063 36.3518H14.9282V45.2023H12.9456V39.1237Z" fill="#33AE02"/>
<path d="M25.0982 45.2023H22.9977L22.3119 43.3908H18.5825L17.8859 45.2023H15.9034L19.3862 36.3518H21.5832L25.0982 45.2023ZM21.5939 41.5028L20.4579 38.5235L19.3112 41.4918H21.5939V41.5028Z" fill="#33AE02"/>
<path d="M28.0453 42.7251V45.2023H26.0627V36.3518H29.0205C29.7814 36.3518 30.4244 36.4173 30.9495 36.5592C31.4746 36.6901 31.9033 36.8974 32.2248 37.1594C32.557 37.4213 32.7928 37.7486 32.9321 38.1416C33.0821 38.5344 33.1464 38.9709 33.1464 39.4729C33.1464 40.5752 32.8035 41.3937 32.1069 41.9284C31.4103 42.4632 30.3815 42.736 29.0098 42.736H28.0453V42.7251ZM28.0453 38.2507V40.8262H29.267C29.8993 40.8262 30.3601 40.7171 30.6602 40.4987C30.9602 40.2805 31.1102 39.9422 31.1102 39.4729C31.1102 39.0473 30.971 38.7418 30.703 38.5453C30.4351 38.3489 29.985 38.2507 29.3634 38.2507H28.0453Z" fill="#33AE02"/>
<path d="M41.7623 45.2023H39.6618L38.976 43.3908H35.2573L34.5608 45.2023H32.5782L36.0611 36.3518H38.2579L41.7623 45.2023ZM38.2579 41.5028L37.1327 38.5235L35.986 41.4918H38.2579V41.5028Z" fill="url(#paint0_linear)"/>
<path d="M47.9783 36.7664H48.1391C48.8035 36.7664 49.3929 36.8537 49.9073 37.0283C50.4217 37.2029 50.8504 37.4649 51.204 37.8031C51.5577 38.1415 51.8256 38.5562 52.0077 39.0363C52.19 39.5165 52.2756 40.0621 52.2756 40.6733C52.2756 41.3281 52.1793 41.8956 51.9863 42.3757C51.7934 42.8669 51.5148 43.2706 51.1505 43.598C50.7861 43.9254 50.336 44.1764 49.8109 44.3401C49.2858 44.5038 48.6856 44.5911 48.0212 44.5911H47.9676V45.4424H45.9851V44.5911H45.8243C44.4955 44.5911 43.4667 44.2419 42.7594 43.5544C42.052 42.8669 41.6877 41.9065 41.6877 40.6842C41.6877 40.0403 41.7841 39.462 41.9771 38.9818C42.17 38.4907 42.4486 38.0869 42.8129 37.7595C43.1773 37.4321 43.6274 37.1811 44.1525 37.0174C44.6776 36.8537 45.2778 36.7664 45.9422 36.7664H45.9958V36.1007H47.9783V36.7664ZM43.7989 40.717C43.7989 41.1098 43.8524 41.4482 43.9704 41.7101C44.0882 41.972 44.2383 42.1902 44.4312 42.3539C44.624 42.5176 44.8491 42.6267 45.1063 42.6922C45.3635 42.7577 45.6207 42.7904 45.8779 42.7904H45.9743V38.6216H45.8993C45.5778 38.6216 45.2885 38.6543 45.0313 38.7308C44.7741 38.8071 44.549 38.9163 44.3668 39.08C44.1847 39.2437 44.0347 39.462 43.9382 39.7348C43.8524 39.9858 43.7989 40.3132 43.7989 40.717ZM47.9783 38.5998V42.7795H48.0534C48.3749 42.7795 48.6642 42.7468 48.9214 42.6704C49.1786 42.594 49.4037 42.4849 49.5858 42.3212C49.768 42.1575 49.918 41.9392 50.0145 41.6664C50.111 41.3936 50.1645 41.0661 50.1645 40.6624C50.1645 40.2695 50.1002 39.9312 49.9823 39.6693C49.8645 39.4074 49.7037 39.1891 49.5108 39.0363C49.3179 38.8836 49.0929 38.7635 48.8464 38.698C48.5999 38.6325 48.3427 38.5998 48.0748 38.5998H47.9783Z" fill="url(#paint1_linear)"/>
<path d="M54.7191 22.5249H55.3513C56.1122 22.5249 56.7552 22.5903 57.2803 22.7322C57.8054 22.8741 58.2341 23.0705 58.5556 23.3433C58.8878 23.6052 59.1236 23.9326 59.2629 24.3146C59.4129 24.6966 59.4772 25.144 59.4772 25.6351C59.4772 26.7373 59.1343 27.5558 58.4377 28.0906C57.7411 28.6253 56.7123 28.8981 55.3513 28.8981H52.7151V20.0476H54.6976V22.5249H54.7191ZM54.7191 24.4238V26.9993H55.5978C56.2301 26.9993 56.6909 26.8901 56.9909 26.6719C57.291 26.4536 57.441 26.1153 57.441 25.646C57.441 25.2204 57.3018 24.9148 57.0338 24.7184C56.7659 24.522 56.3158 24.4238 55.6942 24.4238H54.7191ZM60.1524 20.0476H62.1349V28.8981H60.1524V20.0476Z" fill="url(#paint2_linear)"/>
<path d="M58.2661 45.3551C57.5588 45.3551 56.9158 45.2569 56.3371 45.0495C55.7584 44.8421 55.2547 44.5475 54.8261 44.1546C54.4081 43.7618 54.0759 43.2816 53.8402 42.7141C53.6044 42.1466 53.4865 41.4919 53.4865 40.7607C53.4865 40.0732 53.6044 39.4511 53.8294 38.8945C54.0652 38.338 54.3867 37.8578 54.8046 37.454C55.2225 37.0502 55.7262 36.7446 56.3049 36.5264C56.8837 36.3081 57.5373 36.199 58.2447 36.199C58.9412 36.199 59.5842 36.2972 60.1629 36.5046C60.7416 36.7119 61.2453 37.0065 61.6739 37.3994C62.0919 37.7923 62.4241 38.2725 62.6599 38.8399C62.8956 39.4074 63.0135 40.0623 63.0135 40.7934C63.0135 41.481 62.8956 42.103 62.6706 42.6596C62.4348 43.2162 62.1133 43.6963 61.6954 44.1001C61.2775 44.493 60.7738 44.8095 60.1951 45.0277C59.6164 45.246 58.9734 45.3551 58.2661 45.3551ZM55.5977 40.7716C55.5977 41.1426 55.6513 41.4919 55.7691 41.8083C55.8763 42.1248 56.0477 42.4085 56.2728 42.6596C56.4978 42.8997 56.7765 43.0961 57.1087 43.238C57.4409 43.3798 57.8267 43.4562 58.2768 43.4562C58.684 43.4562 59.0484 43.3907 59.3806 43.2598C59.7128 43.1288 59.9915 42.9433 60.2165 42.7141C60.4523 42.485 60.6237 42.2012 60.7416 41.8738C60.8595 41.5464 60.9238 41.1754 60.9238 40.7716C60.9238 40.4114 60.8702 40.0623 60.7524 39.7458C60.6451 39.4183 60.4737 39.1346 60.2487 38.8945C60.0236 38.6545 59.745 38.458 59.4128 38.3161C59.0805 38.1743 58.6948 38.0979 58.2447 38.0979C57.8267 38.0979 57.4624 38.1633 57.1301 38.2943C56.7979 38.4252 56.53 38.6108 56.2942 38.8399C56.0692 39.0801 55.8978 39.3638 55.7691 39.6912C55.662 40.0186 55.5977 40.3787 55.5977 40.7716Z" fill="url(#paint3_linear)"/>
<path d="M66.2177 26.0059L70.2148 20.0474H72.4115V28.8979H70.4295V22.8085L66.3891 28.9089H64.2244V20.0583H66.207V26.0059H66.2177ZM71.0936 17.7666C71.0291 18.4213 70.7616 18.9124 70.3115 19.2289C69.8615 19.5454 69.2186 19.7091 68.4038 19.7091C67.9752 19.7091 67.5894 19.6764 67.2572 19.6109C66.925 19.5454 66.6356 19.4362 66.3998 19.2834C66.1641 19.1307 65.9712 18.9343 65.8318 18.6833C65.6926 18.4322 65.6068 18.1267 65.5747 17.7556H67.4501C67.493 17.963 67.5894 18.1267 67.7287 18.2249C67.8787 18.3231 68.0931 18.3777 68.3824 18.3777C68.6719 18.3777 68.8756 18.3231 69.0039 18.214C69.1329 18.1049 69.2077 17.9521 69.2399 17.7556H71.0936V17.7666Z" fill="url(#paint4_linear)"/>
<path d="M48.6534 25.2968H44.4524V28.8981H42.4699V20.0476H44.4524V23.3979H48.6534V20.0476H50.6359V28.8981H48.6534V25.2968Z" fill="url(#paint5_linear)"/>
<path d="M40.1442 25.2965H36.4792V26.9989H40.7444V28.8978H34.4966V20.0473H40.605V21.9462H36.4792V23.3976H40.1442V25.2965ZM35.2789 18.694C35.2789 18.4212 35.3754 18.2139 35.5576 18.0502C35.7397 17.8865 35.9969 17.8101 36.3077 17.8101C36.6185 17.8101 36.8757 17.8865 37.0579 18.0502C37.24 18.2139 37.3365 18.4212 37.3365 18.694C37.3365 18.9669 37.24 19.1961 37.0579 19.3598C36.8757 19.5234 36.6292 19.6107 36.3077 19.6107C35.9969 19.6107 35.7397 19.5234 35.5576 19.3598C35.3754 19.1961 35.2789 18.9777 35.2789 18.694ZM38.0759 18.694C38.0759 18.4212 38.1724 18.2139 38.3546 18.0502C38.5367 17.8865 38.7939 17.8101 39.1047 17.8101C39.4155 17.8101 39.6727 17.8865 39.8549 18.0502C40.0371 18.2139 40.1335 18.4212 40.1335 18.694C40.1335 18.9669 40.0371 19.1961 39.8549 19.3598C39.6727 19.5234 39.4155 19.6107 39.1047 19.6107C38.7939 19.6107 38.5367 19.5234 38.3546 19.3598C38.1724 19.1961 38.0759 18.9777 38.0759 18.694Z" fill="#33AE02"/>
<path d="M30.4242 21.9465H27.7129C27.6593 23.0159 27.5736 23.9326 27.4771 24.6966C27.3807 25.4604 27.2628 26.1044 27.1342 26.6282C27.0056 27.152 26.8556 27.5776 26.6841 27.8941C26.5233 28.2106 26.3412 28.4506 26.159 28.6144C25.9768 28.7781 25.7732 28.8872 25.5589 28.9418C25.3445 28.9963 25.1195 29.029 24.9052 29.029C24.7444 29.029 24.5729 29.0072 24.4122 28.9745C24.2514 28.9418 24.1229 28.8981 24.0264 28.8654V26.8901C24.0907 26.9119 24.1657 26.9338 24.2407 26.9447C24.3157 26.9556 24.3801 26.9556 24.4443 26.9556C24.5301 26.9556 24.6265 26.9447 24.7337 26.9119C24.8301 26.8791 24.9266 26.8137 25.023 26.7046C25.1088 26.5954 25.2052 26.4317 25.2802 26.2135C25.366 25.9952 25.441 25.7006 25.516 25.3186C25.591 24.9367 25.6553 24.4674 25.7089 23.9108C25.7624 23.3542 25.8053 22.6777 25.8482 21.87L25.9339 20.0366H32.4282V28.8872H30.4456V21.9465H30.4242Z" fill="#33AE02"/>
<path d="M22.0869 25.2968H18.4218V26.9993H22.6871V28.8981H16.4393V20.0476H22.5477V21.9465H18.4218V23.3979H22.0869V25.2968Z" fill="#33AE02"/>
<path d="M7.96255 20.5932C8.26262 20.4186 8.64839 20.2549 9.11991 20.124C9.59143 19.993 10.1702 19.9166 10.8453 19.9166C11.4026 19.9166 11.8955 19.9602 12.3349 20.0475C12.7743 20.1349 13.1386 20.2658 13.4387 20.4514C13.7388 20.6368 13.9638 20.8661 14.1246 21.1498C14.2853 21.4335 14.3603 21.7827 14.3603 22.1865C14.3603 22.7213 14.221 23.1578 13.9531 23.4743C13.6852 23.7907 13.2887 24.0418 12.785 24.2273C13.4923 24.3255 14.0067 24.5328 14.3282 24.8712C14.6496 25.2095 14.8105 25.6569 14.8105 26.2462C14.8105 26.6391 14.7354 27.0102 14.5854 27.3485C14.4353 27.6867 14.1996 27.9814 13.8888 28.2324C13.578 28.4834 13.1815 28.6798 12.71 28.8108C12.2385 28.9526 11.6705 29.0291 11.0168 29.0291C10.631 29.0291 10.2666 28.9963 9.93438 28.9417C9.6022 28.8872 9.29142 28.8108 9.02345 28.7126C8.74485 28.6144 8.50905 28.5052 8.3055 28.3743C8.10188 28.2433 7.94107 28.1123 7.82321 27.9814V25.7333C8.10188 26.1589 8.51982 26.5081 9.05563 26.7592C9.59143 27.0211 10.2452 27.1411 11.0061 27.1193C11.2418 27.1193 11.4562 27.0974 11.6812 27.0647C11.8955 27.032 12.0884 26.9665 12.2492 26.8792C12.4099 26.7918 12.5385 26.6827 12.6349 26.5518C12.7314 26.4208 12.7743 26.268 12.7743 26.0934C12.7743 25.7769 12.6457 25.5587 12.3777 25.4277C12.1098 25.2968 11.6812 25.2204 11.0703 25.2204H9.77364V23.5507H11.0275C11.4883 23.5507 11.8205 23.4634 12.0134 23.2997C12.2063 23.136 12.3028 22.9286 12.3028 22.6885C12.3028 22.372 12.1741 22.1429 11.9277 22.0119C11.6812 21.881 11.3168 21.8155 10.8346 21.8045C10.5024 21.8045 10.1916 21.8373 9.90221 21.9137C9.6129 21.9901 9.345 22.0883 9.0985 22.2192C8.85201 22.3502 8.63769 22.4921 8.44477 22.6667C8.25192 22.8304 8.09111 23.016 7.95185 23.2014V20.5932H7.96255Z" fill="#33AE02"/>
<path d="M70.4295 41.601H66.2284V45.2023H64.2458V36.3518H66.2284V39.7021H70.4295V36.3518H72.4122V45.2023H70.4295V41.601Z" fill="#018ACF"/>
<path d="M111.035 5.76213C109.888 3.05568 111.538 0 114.389 0H118C116.671 1.38597 116.425 1.71336 116.414 2.09532C116.414 2.47728 117.089 3.57951 117.293 4.01603C118.579 6.74432 116.95 9.93096 114.024 9.93096H111.056C111.967 8.89419 112.234 8.47949 112.224 8.06478C112.224 7.44279 111.281 6.36236 111.035 5.76213Z" fill="#F8F601"/>
<path d="M101.014 12.3318C101.014 10.1928 99.31 8.45764 97.2094 8.45764C95.1094 8.45764 93.4052 10.1928 93.4052 12.3318C93.4052 14.4708 95.1094 16.2059 97.2094 16.2059C99.31 16.2059 101.014 14.4599 101.014 12.3318Z" fill="url(#paint6_linear)"/>
<path d="M109.812 10.9459L103.564 17.3083L85.9568 17.2974L74.5547 28.909H79.4737C80.8128 28.909 81.9064 28.5052 82.6672 27.8722C82.9567 27.643 83.8136 26.8682 84.4784 26.2134C85.3462 25.2858 86.2353 24.3691 87.2754 23.6488C87.9072 23.2123 88.5933 22.8631 89.3329 22.6885C89.8254 22.5684 90.7578 22.5575 91.6798 22.5575C95.6129 22.5466 105.686 22.5575 105.686 22.5575L117.078 10.9568H109.812V10.9459Z" fill="url(#paint7_linear)"/>
<path d="M109.812 10.9459L103.564 17.3083L85.9568 17.2974L74.5547 28.909H79.4737C80.8128 28.909 81.9064 28.5052 82.6672 27.8722C82.9567 27.643 83.8136 26.8682 84.4784 26.2134C85.3462 25.2858 86.2353 24.3691 87.2754 23.6488C87.9072 23.2123 88.5933 22.8631 89.3329 22.6885C89.8254 22.5684 90.7578 22.5575 91.6798 22.5575C95.6129 22.5466 105.686 22.5575 105.686 22.5575L117.078 10.9568H109.812V10.9459Z" fill="url(#paint8_linear)"/>
<path d="M107.187 38.9818L103.544 35.2714L98.3777 30.0112H98.3674C98.3674 30.0112 94.166 30.033 93.4484 30.0221C91.1118 30.0112 90.0086 31.288 88.7655 32.3685L75.9803 45.3987L79.6239 49.1092L94.7341 33.7217L99.9103 38.9928L92.0551 46.9702L95.6987 50.6807L103.554 42.6814L107.187 38.9818Z" fill="url(#paint9_linear)"/>
<path d="M107.187 38.9818L103.544 35.2714L98.3777 30.0112H98.3674C98.3674 30.0112 94.166 30.033 93.4484 30.0221C91.1118 30.0112 90.0086 31.288 88.7655 32.3685L75.9803 45.3987L79.6239 49.1092L94.7341 33.7217L99.9103 38.9928L92.0551 46.9702L95.6987 50.6807L103.554 42.6814L107.187 38.9818Z" fill="url(#paint10_radial)"/>
<path d="M97.3274 23.6598H92.1731C92.1731 23.6598 89.7507 23.6161 88.8615 24.009C88.2612 24.2818 87.2432 24.9584 85.9253 26.3444C85.0567 27.272 84.1676 28.1887 83.1283 28.909C82.2707 29.5092 81.4886 30.0003 80.2668 30.0003C80.1165 30.0003 54.1719 30.0112 54.1719 30.0112V35.2495H77.1377H82.1849C82.871 35.2168 83.6208 35.0967 84.0606 34.9003C84.8427 34.5511 85.786 33.7981 86.9969 32.5649C87.8647 31.6373 88.7545 30.7206 89.7939 30.0003C90.6508 29.4001 91.605 28.9963 92.6554 28.909C92.8482 28.8981 99.4603 28.8872 99.4603 28.8872L104.615 23.6379H97.3274V23.6598Z" fill="url(#paint11_linear)"/>
<path d="M67.075 30.0004C45.524 30.0004 5.14396 30.0113 5.14396 30.0113L0 35.2495H67.075V30.0004Z" fill="url(#paint12_linear)"/>
</g>
<defs>
<linearGradient id="paint0_linear" x1="34.3501" y1="39.8242" x2="41.2211" y2="45.7874" gradientUnits="userSpaceOnUse">
<stop stop-color="#26A331"/>
<stop offset="1" stop-color="#199A67"/>
</linearGradient>
<linearGradient id="paint1_linear" x1="42.2434" y1="39.4558" x2="51.9841" y2="42.0756" gradientUnits="userSpaceOnUse">
<stop stop-color="#1A9B5C"/>
<stop offset="1" stop-color="#0B8F9D"/>
</linearGradient>
<linearGradient id="paint2_linear" x1="55.2624" y1="21.103" x2="61.0509" y2="29.7612" gradientUnits="userSpaceOnUse">
<stop stop-color="#1A9B47"/>
<stop offset="1" stop-color="#0F928E"/>
</linearGradient>
<linearGradient id="paint3_linear" x1="54.1647" y1="38.2494" x2="61.2582" y2="42.476" gradientUnits="userSpaceOnUse">
<stop stop-color="#088DA5"/>
<stop offset="1" stop-color="#018ACF"/>
</linearGradient>
<linearGradient id="paint4_linear" x1="68.583" y1="18.1308" x2="68.1385" y2="28.4613" gradientUnits="userSpaceOnUse">
<stop stop-color="#1A9B47"/>
<stop offset="1" stop-color="#109399"/>
</linearGradient>
<linearGradient id="paint5_linear" x1="42.6517" y1="20.6688" x2="51.8826" y2="29.3408" gradientUnits="userSpaceOnUse">
<stop stop-color="#26A331"/>
<stop offset="1" stop-color="#18985B"/>
</linearGradient>
<linearGradient id="paint6_linear" x1="93.7331" y1="13.5565" x2="100.761" y2="11.1619" gradientUnits="userSpaceOnUse">
<stop stop-color="#96DF3B"/>
<stop offset="1" stop-color="#BDEB21"/>
</linearGradient>
<linearGradient id="paint7_linear" x1="74.6837" y1="28.6864" x2="117.386" y2="11.6218" gradientUnits="userSpaceOnUse">
<stop stop-color="#199C9D"/>
<stop offset="0.5121" stop-color="#75D259"/>
<stop offset="1" stop-color="#75D259"/>
</linearGradient>
<linearGradient id="paint8_linear" x1="95.7412" y1="19.9965" x2="112.858" y2="5.68006" gradientUnits="userSpaceOnUse">
<stop stop-color="#F9F601" stop-opacity="0"/>
<stop offset="1" stop-color="#F8F602"/>
</linearGradient>
<linearGradient id="paint9_linear" x1="82.5149" y1="50.663" x2="105.668" y2="29.6759" gradientUnits="userSpaceOnUse">
<stop stop-color="#009DE6"/>
<stop offset="0.5251" stop-color="#48CB9C"/>
<stop offset="1" stop-color="#5BDC97"/>
</linearGradient>
<radialGradient id="paint10_radial" cx="0" cy="0" r="1" gradientUnits="userSpaceOnUse" gradientTransform="translate(96.0801 53.1357) scale(16.5486 16.8522)">
<stop stop-color="#16CAE2"/>
<stop offset="1" stop-color="#16CAE2" stop-opacity="0"/>
</radialGradient>
<linearGradient id="paint11_linear" x1="54.6956" y1="34.6954" x2="106.039" y2="26.5498" gradientUnits="userSpaceOnUse">
<stop stop-color="#0A8E9F"/>
<stop offset="0.2858" stop-color="#0289C1"/>
<stop offset="0.553" stop-color="#3BB792"/>
<stop offset="1" stop-color="#8CDC56"/>
</linearGradient>
<linearGradient id="paint12_linear" x1="9.50126" y1="18.4955" x2="60.2583" y2="47.2723" gradientUnits="userSpaceOnUse">
<stop stop-color="#33AE02"/>
<stop offset="0.4581" stop-color="#29A621"/>
<stop offset="0.7765" stop-color="#11947E"/>
<stop offset="1" stop-color="#0188C7"/>
</linearGradient>
<clipPath id="clip0">
<rect width="118" height="51" fill="white"/>
</clipPath>
</defs>
</svg>
