<svg width="32" height="32" viewBox="0 0 32 32" fill="none" xmlns="http://www.w3.org/2000/svg">
<g clip-path="url(#clip0)">
<path d="M24.3275 22.0041C26.1455 22.0041 27.8682 21.0354 28.8212 19.4885C29.8179 17.8707 29.8525 15.7929 28.913 14.1412C28.3721 13.1901 27.5383 12.414 26.5469 11.9497C27.733 9.05116 27.2372 5.66217 25.2712 3.22884C23.485 1.01806 20.6742 -0.197981 17.8392 0.0264372C15.9342 0.177194 14.1082 0.969492 12.6955 2.25607C11.4124 3.42442 10.5193 4.93423 10.1122 6.59405C7.60051 5.96075 4.98041 7.57874 4.42108 10.1065C4.24573 10.8989 4.28243 11.7344 4.5247 12.5091C3.03768 13.6184 2.23339 15.4694 2.43727 17.3134C2.61718 18.9406 3.57609 20.4198 4.97978 21.2595C5.79274 21.7458 6.73205 22.004 7.67923 22.004H15.067V26.1027H10.5795C8.54937 26.1027 6.89779 27.7543 6.89779 29.7844V31.0636C6.89779 31.5807 7.31704 32 7.83417 32H24.1726C24.6897 32 25.109 31.5807 25.109 31.0636V29.7844C25.109 27.7543 23.4574 26.1027 21.4273 26.1027H16.9398V22.004H24.3275V22.0041ZM23.2362 29.7844V30.1272H8.7706V29.7844C8.7706 28.787 9.58207 27.9755 10.5796 27.9755H21.4274C22.4248 27.9756 23.2362 28.787 23.2362 29.7844ZM7.67929 20.1313C6.18871 20.1313 4.8372 19.1196 4.41596 17.6897C3.95913 16.1389 4.69331 14.4535 6.12353 13.7099C6.34595 13.5943 6.51275 13.3942 6.58648 13.1546C6.66026 12.915 6.63479 12.6558 6.51587 12.4351C5.96697 11.4163 6.11979 10.1314 6.88537 9.26715C7.62261 8.43496 8.81305 8.11566 9.86785 8.47298C9.85455 9.08512 10.2171 9.67497 10.91 9.59413C11.1886 9.56161 11.4405 9.40305 11.591 9.16633C11.778 8.87225 11.7661 8.01696 11.7695 7.98232C11.9353 6.31582 12.712 4.77392 13.9563 3.64072C15.8926 1.87734 18.7577 1.38499 21.169 2.40664C23.2526 3.28946 24.8008 5.2099 25.2089 7.4371C25.4951 8.99953 25.2184 10.6469 24.4304 12.027C24.4097 12.0631 24.45 11.9951 24.4304 12.027C23.7019 13.3207 22.4606 14.3789 21.173 14.9234C20.6967 15.1249 20.4739 15.6743 20.6753 16.1506C20.8739 16.62 21.4323 16.8471 21.9025 16.6483C23.4259 16.0039 24.7127 14.9545 25.6507 13.6002C27.2156 14.2678 28.0723 16.0549 27.5907 17.6897C27.1653 19.1342 25.8151 20.1174 24.3197 20.1313H16.9399V14.0024L19.7452 11.197C20.1109 10.8314 20.1109 10.2385 19.7452 9.8728C19.3746 9.50218 18.7946 9.52596 18.4209 9.8728L16.9398 11.354C16.9398 10.5293 16.9398 9.70456 16.9398 8.8798C16.9398 8.35606 16.7359 7.8428 16.1482 7.75141C15.5491 7.65821 15.0804 8.1362 15.067 8.71213V15.9318C14.6385 15.5033 13.2262 14.091 13.2262 14.091C12.8497 13.7363 12.2678 13.6954 11.8871 14.0761C11.5214 14.4417 11.5214 15.0347 11.8871 15.4003L15.067 18.5803L15.0671 20.1313H7.67929V20.1313Z" fill="#5B7A1E"/>
</g>
<defs>
<clipPath id="clip0">
<rect width="32" height="32" fill="white"/>
</clipPath>
</defs>
</svg>
