<svg width="114" height="32" viewBox="0 0 114 32" fill="none" xmlns="http://www.w3.org/2000/svg">
<g clip-path="url(#clip0)">
<path d="M90.339 9.45503L94.5539 6.31995H80.4461V25.148H94.5539V22.0129H84.4722V17.1933H93.0713V14.0582H84.4722V9.45503H90.339Z" fill="#21A038"/>
<path d="M105.983 6.31995H98.3019V25.148H102.328V19.8149H105.983C110.884 19.8149 113.929 17.214 113.929 13.0581C113.929 8.90214 110.885 6.31995 105.983 6.31995ZM105.896 16.6798H102.328V9.45503H105.896C108.476 9.45503 109.897 10.7378 109.897 13.0674C109.897 15.397 108.477 16.6798 105.896 16.6798Z" fill="#21A038"/>
<path d="M69.7981 13.6596H64.8989V9.45503H72.7202L76.9351 6.31995H60.8728V25.148H69.279C73.9935 25.148 76.6981 22.9924 76.6981 19.233C76.6981 15.6392 74.247 13.6596 69.7981 13.6596ZM69.0974 22.0129H64.8989V16.7937H69.0974C71.6532 16.7937 72.8434 17.6665 72.8434 19.4028C72.8423 21.1774 71.5824 22.0129 69.0974 22.0129Z" fill="#21A038"/>
<path d="M53.9615 21.0717C52.9293 21.6464 51.7268 21.9508 50.4864 21.9508C46.8563 21.9508 44.2225 19.3365 44.2225 15.7345C44.2225 12.1324 46.8574 9.51814 50.4864 9.51814C51.8592 9.51814 53.0904 9.90744 54.1482 10.6746L57.0355 8.52729L56.8446 8.35853C55.1589 6.86347 52.9057 6.07349 50.3304 6.07349C47.5366 6.07349 45.0003 7.02394 43.1904 8.75094C41.3692 10.4872 40.3668 12.9307 40.3668 15.6309C40.3668 18.3436 41.3661 20.8233 43.1801 22.6124C45.0003 24.4077 47.5304 25.3965 50.3048 25.3965C53.2074 25.3965 55.7417 24.3756 57.4592 22.5171C56.1336 21.5314 54.8541 20.58 54.8541 20.58L53.9615 21.0717Z" fill="#21A038"/>
<path d="M22.2544 5.80218L25.2699 3.55959C22.6084 1.38946 19.2215 0.0880127 15.533 0.0880127V3.70246C18.0252 3.70246 20.3399 4.47795 22.2544 5.80218Z" fill="url(#paint0_linear)"/>
<path d="M31.0372 15.7334C31.0372 14.7767 30.952 13.8397 30.7889 12.9307L27.4513 15.4124C27.4543 15.5191 27.4554 15.6257 27.4554 15.7334C27.4554 19.2661 25.9389 22.4477 23.5278 24.651L25.9338 27.3346C29.0683 24.4729 31.0372 20.3356 31.0372 15.7334Z" fill="#21A038"/>
<path d="M15.5329 27.7654C12.0321 27.7654 8.87913 26.2351 6.69576 23.802L4.03632 26.2299C6.87326 29.3919 10.9733 31.3788 15.5329 31.3788V27.7654Z" fill="url(#paint1_linear)"/>
<path d="M7.53881 6.81585L5.13279 4.1322C1.99932 6.99498 0.0303955 11.1323 0.0303955 15.7334H3.61222C3.6112 12.2008 5.12766 9.01911 7.53881 6.81585Z" fill="url(#paint2_linear)"/>
<path d="M3.61121 15.7334C3.61121 15.5315 3.61634 15.3316 3.6266 15.1318L0.0498902 14.9517C0.0375779 15.2105 0.0303955 15.4714 0.0303955 15.7334C0.0303955 20.0539 1.76539 23.9655 4.57155 26.7962L7.10788 24.2368C4.94811 22.0584 3.61121 19.0507 3.61121 15.7334Z" fill="url(#paint3_linear)"/>
<path d="M15.5329 3.70247C15.733 3.70247 15.931 3.70971 16.129 3.71903L16.3075 0.107685C16.051 0.0952605 15.7925 0.0880127 15.5329 0.0880127C11.2513 0.0880127 7.37502 1.83881 4.56989 4.67053L7.1062 7.22995C9.26495 5.05155 12.2466 3.70247 15.5329 3.70247Z" fill="url(#paint4_linear)"/>
<path d="M15.5329 27.7653C15.3328 27.7653 15.1348 27.7602 14.9368 27.7498L14.7582 31.3591C15.0147 31.3715 15.2733 31.3788 15.5329 31.3788C19.8145 31.3788 23.6908 29.628 26.4959 26.7962L23.9596 24.2368C21.8008 26.4152 18.8203 27.7653 15.5329 27.7653Z" fill="url(#paint5_linear)"/>
<path d="M27.8021 6.1687C28.5346 7.12331 29.1605 8.16592 29.6602 9.27893L15.5329 19.7848L9.63129 16.0512V11.5598L15.5329 15.2934L27.8021 6.1687Z" fill="#21A038"/>
</g>
<defs>
<linearGradient id="paint0_linear" x1="14.7837" y1="1.29968" x2="24.5441" y2="4.28402" gradientUnits="userSpaceOnUse">
<stop offset="0.0566" stop-color="#0291EB"/>
<stop offset="0.79" stop-color="#0C8ACB"/>
</linearGradient>
<linearGradient id="paint1_linear" x1="4.93446" y1="25.7906" x2="15.5656" y2="29.7269" gradientUnits="userSpaceOnUse">
<stop offset="0.1324" stop-color="#F2E913"/>
<stop offset="0.2977" stop-color="#EBE716"/>
<stop offset="0.5306" stop-color="#D9E01F"/>
<stop offset="0.8023" stop-color="#BBD62D"/>
<stop offset="0.9829" stop-color="#A3CD39"/>
</linearGradient>
<linearGradient id="paint2_linear" x1="1.36362" y1="16.1718" x2="5.68933" y2="5.02061" gradientUnits="userSpaceOnUse">
<stop offset="0.0698" stop-color="#A3CD39"/>
<stop offset="0.2599" stop-color="#81C55F"/>
<stop offset="0.9216" stop-color="#0FA8E0"/>
</linearGradient>
<linearGradient id="paint3_linear" x1="5.29545" y1="26.3444" x2="1.31814" y2="14.9514" gradientUnits="userSpaceOnUse">
<stop offset="0.1444" stop-color="#F2E913"/>
<stop offset="0.3037" stop-color="#E7E518"/>
<stop offset="0.5823" stop-color="#CADB26"/>
<stop offset="0.891" stop-color="#A3CD39"/>
</linearGradient>
<linearGradient id="paint4_linear" x1="5.59302" y1="5.31065" x2="15.6956" y2="1.49553" gradientUnits="userSpaceOnUse">
<stop offset="0.0592" stop-color="#0FA8E0"/>
<stop offset="0.5385" stop-color="#0099F9"/>
<stop offset="0.9234" stop-color="#0291EB"/>
</linearGradient>
<linearGradient id="paint5_linear" x1="14.5223" y1="29.1987" x2="25.9304" y2="26.6436" gradientUnits="userSpaceOnUse">
<stop offset="0.1226" stop-color="#A3CD39"/>
<stop offset="0.2846" stop-color="#86C339"/>
<stop offset="0.8693" stop-color="#21A038"/>
</linearGradient>
<clipPath id="clip0">
<rect width="113.991" height="31.475" fill="white"/>
</clipPath>
</defs>
</svg>
