<svg width="24" height="24" viewBox="0 0 24 24" fill="none" xmlns="http://www.w3.org/2000/svg">
<g clip-path="url(#clip0)">
<path d="M18.2457 16.5031C19.6091 16.5031 20.9011 15.7765 21.6159 14.6164C22.3635 13.403 22.3893 11.8447 21.6848 10.6059C21.279 9.89259 20.6537 9.3105 19.9102 8.96226C20.7997 6.78837 20.4279 4.24663 18.9534 2.42163C17.6137 0.763544 15.5056 -0.148486 13.3794 0.0198279C11.9507 0.132895 10.5811 0.727119 9.52158 1.69205C8.55932 2.56831 7.88943 3.70067 7.58413 4.94554C5.70037 4.47056 3.7353 5.68406 3.3158 7.57984C3.18429 8.1742 3.21182 8.80083 3.39352 9.3818C2.27825 10.2138 1.67504 11.602 1.82795 12.9851C1.96288 14.2054 2.68206 15.3148 3.73483 15.9446C4.34455 16.3094 5.04903 16.503 5.75941 16.503H11.3003V19.5771H7.93461C6.41202 19.5771 5.17334 20.8157 5.17334 22.3383V23.2977C5.17334 23.6855 5.48777 24 5.87562 24H18.1294C18.5173 24 18.8317 23.6855 18.8317 23.2977V22.3383C18.8317 20.8157 17.593 19.5771 16.0705 19.5771H12.7048V16.503H18.2457V16.5031ZM17.4272 22.3383V22.5954H6.57795V22.3383C6.57795 21.5902 7.18654 20.9816 7.93466 20.9816H16.0705C16.8186 20.9817 17.4272 21.5903 17.4272 22.3383ZM5.75946 15.0985C4.64152 15.0985 3.62789 14.3397 3.31196 13.2673C2.96934 12.1042 3.51998 10.8401 4.59264 10.2825C4.75946 10.1957 4.88456 10.0456 4.93985 9.86595C4.99519 9.68622 4.97609 9.49183 4.8869 9.32632C4.47522 8.56224 4.58983 7.59857 5.16402 6.95036C5.71695 6.32622 6.60978 6.08674 7.40088 6.35473C7.39091 6.81384 7.66278 7.25623 8.18247 7.1956C8.39147 7.17121 8.58038 7.05229 8.69326 6.87475C8.83349 6.65419 8.82454 6.01272 8.82712 5.98674C8.95147 4.73687 9.53399 3.58044 10.4672 2.73054C11.9195 1.408 14.0683 1.03874 15.8768 1.80498C17.4395 2.46709 18.6006 3.90742 18.9066 5.57782C19.1213 6.74965 18.9138 7.98515 18.3228 9.02022C18.3073 9.04733 18.3375 8.99634 18.3228 9.02022C17.7764 9.99054 16.8454 10.7842 15.8798 11.1926C15.5225 11.3437 15.3554 11.7557 15.5065 12.1129C15.6554 12.465 16.0742 12.6353 16.4268 12.4862C17.5694 12.0029 18.5345 11.2159 19.238 10.2001C20.4117 10.7009 21.0542 12.0412 20.6931 13.2672C20.3739 14.3507 19.3613 15.0881 18.2398 15.0985H12.7049V10.5018L14.8089 8.39777C15.0831 8.12355 15.0831 7.67886 14.8089 7.4046C14.5309 7.12664 14.0959 7.14447 13.8157 7.4046L12.7048 8.51547C12.7048 7.89694 12.7048 7.27842 12.7048 6.65985C12.7048 6.26704 12.5519 5.8821 12.1112 5.81356C11.6618 5.74366 11.3103 6.10215 11.3003 6.5341V11.9489C10.9789 11.6275 9.91963 10.5682 9.91963 10.5682C9.63727 10.3023 9.20087 10.2715 8.91533 10.5571C8.64106 10.8313 8.64106 11.276 8.91533 11.5503L11.3003 13.9352L11.3003 15.0985H5.75946V15.0985Z" fill="#99CC33"/>
</g>
<defs>
<clipPath id="clip0">
<rect width="24" height="24" fill="white"/>
</clipPath>
</defs>
</svg>
