<svg width="32" height="32" viewBox="0 0 32 32" fill="none" xmlns="http://www.w3.org/2000/svg">
<path fill-rule="evenodd" clip-rule="evenodd" d="M15.9998 17.3333C16.7362 17.3333 17.3332 17.9303 17.3332 18.6666V29.3333C17.3332 30.0697 16.7362 30.6666 15.9998 30.6666C15.2635 30.6666 14.6665 30.0697 14.6665 29.3333V18.6666C14.6665 17.9303 15.2635 17.3333 15.9998 17.3333Z" fill="#FE8240"/>
<path d="M16 18.6667C20.4183 18.6667 24 15.085 24 10.6667C24 6.24841 20.4183 2.66669 16 2.66669C11.5817 2.66669 8 6.24841 8 10.6667C8 15.085 11.5817 18.6667 16 18.6667Z" fill="#C45008"/>
<path fill-rule="evenodd" clip-rule="evenodd" d="M15.9998 3.99998C12.3179 3.99998 9.33317 6.98475 9.33317 10.6666C9.33317 14.3485 12.3179 17.3333 15.9998 17.3333C19.6817 17.3333 22.6665 14.3485 22.6665 10.6666C22.6665 6.98475 19.6817 3.99998 15.9998 3.99998ZM6.6665 10.6666C6.6665 5.51199 10.8452 1.33331 15.9998 1.33331C21.1545 1.33331 25.3332 5.51199 25.3332 10.6666C25.3332 15.8213 21.1545 20 15.9998 20C10.8452 20 6.6665 15.8213 6.6665 10.6666Z" fill="#FE8240"/>
</svg>
